<svg xmlns="http://www.w3.org/2000/svg" viewBox="0 0 800 800">
  <!-- This is a simplified outline map of India with states for the interactive cultural map -->
  
  <!-- Background -->
  <rect width="800" height="800" fill="#f8f9fa" />
  
  <!-- State outlines - each state has an ID matching the data in the controller -->
  
  <!-- North India -->
  <path id="jammu-kashmir" d="M250,100 L200,150 L220,200 L250,220 L300,210 L320,180 L300,150 L280,120 Z" fill="#f8f9fa" stroke="#B71C1C" stroke-width="1" />
  <path id="himachal-pradesh" d="M290,210 L320,180 L350,200 L370,230 L350,250 L330,240 L300,230 Z" fill="#f8f9fa" stroke="#B71C1C" stroke-width="1" />
  <path id="punjab" d="M280,230 L300,230 L330,240 L340,270 L320,290 L300,280 L280,260 Z" fill="#f8f9fa" stroke="#B71C1C" stroke-width="1" />
  <path id="uttarakhand" d="M350,250 L370,230 L400,240 L420,260 L410,290 L380,300 L360,280 L340,270 Z" fill="#f8f9fa" stroke="#B71C1C" stroke-width="1" />
  <path id="haryana" d="M300,280 L320,290 L340,270 L360,280 L380,300 L370,330 L350,350 L330,340 L310,310 Z" fill="#f8f9fa" stroke="#B71C1C" stroke-width="1" />
  <path id="uttar-pradesh" d="M380,300 L410,290 L450,300 L480,320 L490,350 L470,380 L430,400 L390,410 L370,380 L350,350 L370,330 Z" fill="#f8f9fa" stroke="#B71C1C" stroke-width="1" />
  <path id="rajasthan" d="M250,310 L280,260 L300,280 L310,310 L330,340 L350,350 L370,380 L350,420 L320,440 L280,430 L240,400 L220,360 Z" fill="#f8f9fa" stroke="#B71C1C" stroke-width="1" />

  <!-- Central India -->
  <path id="madhya-pradesh" d="M320,440 L350,420 L370,380 L390,410 L430,400 L450,420 L440,450 L420,480 L390,490 L350,480 L320,460 Z" fill="#f8f9fa" stroke="#B71C1C" stroke-width="1" />
  <path id="chhattisgarh" d="M440,450 L450,420 L480,430 L510,450 L500,490 L470,520 L440,510 L420,480 Z" fill="#f8f9fa" stroke="#B71C1C" stroke-width="1" />

  <!-- East India -->
  <path id="bihar" d="M490,350 L520,340 L550,360 L540,390 L510,410 L480,430 L450,420 L430,400 L470,380 Z" fill="#f8f9fa" stroke="#B71C1C" stroke-width="1" />
  <path id="jharkhand" d="M510,410 L540,390 L560,410 L550,440 L520,470 L490,460 L480,430 Z" fill="#f8f9fa" stroke="#B71C1C" stroke-width="1" />
  <path id="west-bengal" d="M540,390 L550,360 L580,370 L600,400 L590,430 L560,450 L550,440 L560,410 Z" fill="#f8f9fa" stroke="#B71C1C" stroke-width="1" />
  <path id="odisha" d="M470,520 L500,490 L520,470 L550,440 L560,450 L580,480 L560,520 L530,540 L500,530 Z" fill="#f8f9fa" stroke="#B71C1C" stroke-width="1" />

  <!-- Northeast India -->
  <path id="sikkim" d="M600,355 L580,370 L590,390 L610,380 Z" fill="#f8f9fa" stroke="#B71C1C" stroke-width="1" />
  <path id="arunachal-pradesh" d="M620,330 L650,350 L670,340 L650,320 L630,310 Z" fill="#f8f9fa" stroke="#B71C1C" stroke-width="1" />
  <path id="assam" d="M610,380 L590,390 L600,400 L620,410 L650,400 L670,380 L650,370 L620,360 Z" fill="#f8f9fa" stroke="#B71C1C" stroke-width="1" />
  <path id="nagaland" d="M670,380 L650,370 L660,350 L680,360 Z" fill="#f8f9fa" stroke="#B71C1C" stroke-width="1" />
  <path id="manipur" d="M670,380 L680,360 L690,380 L680,400 Z" fill="#f8f9fa" stroke="#B71C1C" stroke-width="1" />
  <path id="mizoram" d="M670,400 L680,400 L690,380 L680,420 Z" fill="#f8f9fa" stroke="#B71C1C" stroke-width="1" />
  <path id="tripura" d="M650,400 L670,400 L660,420 L640,410 Z" fill="#f8f9fa" stroke="#B71C1C" stroke-width="1" />
  <path id="meghalaya" d="M620,360 L650,370 L620,380 L600,370 Z" fill="#f8f9fa" stroke="#B71C1C" stroke-width="1" />

  <!-- West India -->
  <path id="gujarat" d="M220,360 L240,400 L230,440 L200,460 L180,430 L160,400 L180,380 L200,370 Z" fill="#f8f9fa" stroke="#B71C1C" stroke-width="1" />
  <path id="maharashtra" d="M230,440 L240,400 L280,430 L320,440 L320,460 L350,480 L330,510 L290,530 L250,520 L220,490 L200,460 Z" fill="#f8f9fa" stroke="#B71C1C" stroke-width="1" />
  <path id="goa" d="M250,520 L270,530 L260,550 L240,540 Z" fill="#f8f9fa" stroke="#B71C1C" stroke-width="1" />

  <!-- South India -->
  <path id="karnataka" d="M270,530 L290,530 L330,510 L350,530 L340,570 L310,600 L280,590 L260,550 Z" fill="#f8f9fa" stroke="#B71C1C" stroke-width="1" />
  <path id="telangana" d="M350,480 L390,490 L420,480 L440,510 L430,540 L400,550 L370,540 L350,530 L330,510 Z" fill="#f8f9fa" stroke="#B71C1C" stroke-width="1" />
  <path id="andhra-pradesh" d="M350,530 L370,540 L400,550 L420,580 L410,610 L380,630 L350,610 L340,570 Z" fill="#f8f9fa" stroke="#B71C1C" stroke-width="1" />
  <path id="tamil-nadu" d="M310,600 L340,570 L350,610 L380,630 L370,670 L340,690 L310,670 L300,630 Z" fill="#f8f9fa" stroke="#B71C1C" stroke-width="1" />
  <path id="kerala" d="M280,590 L310,600 L300,630 L310,670 L280,650 L260,620 Z" fill="#f8f9fa" stroke="#B71C1C" stroke-width="1" />

  <!-- Label for map -->
  <text x="400" y="50" font-family="'Lora', serif" font-size="24" fill="#B71C1C" text-anchor="middle">Cultural Map of India</text>
  <text x="400" y="80" font-family="'Poppins', sans-serif" font-size="14" fill="#212121" text-anchor="middle">Click on a state to explore its cultural heritage</text>
</svg>
